<?xml version="1.0" encoding="utf-8"?>
<!-- Generator: Adobe Illustrator 16.0.3, SVG Export Plug-In . SVG Version: 6.00 Build 0)  -->
<!DOCTYPE svg PUBLIC "-//W3C//DTD SVG 1.1//EN" "http://www.w3.org/Graphics/SVG/1.1/DTD/svg11.dtd">
<svg version="1.1" id="Layer_1" xmlns="http://www.w3.org/2000/svg" xmlns:xlink="http://www.w3.org/1999/xlink" x="0px" y="0px"
	 width="349.297px" height="200px" viewBox="425.351 500 349.297 200" enable-background="new 425.351 500 349.297 200"
	 xml:space="preserve">
<path fill="#FFFFFF" d="M600,500c6.594,0.094,12.883,2.789,17.5,7.5l150,150c4.594,4.684,7.16,10.988,7.147,17.551
	c-0.012,6.559-2.602,12.855-7.214,17.523c-4.609,4.664-10.871,7.332-17.435,7.426h-300c-6.563-0.094-12.824-2.762-17.434-7.426
	c-4.613-4.668-7.203-10.965-7.215-17.523c-0.012-6.563,2.555-12.867,7.148-17.551l150-150C587.116,502.789,593.405,500.094,600,500
	L600,500z"/>
</svg>
