<?xml version="1.0" encoding="utf-8"?>
<!-- Generator: Adobe Illustrator 16.0.3, SVG Export Plug-In . SVG Version: 6.00 Build 0)  -->
<!DOCTYPE svg PUBLIC "-//W3C//DTD SVG 1.1//EN" "http://www.w3.org/Graphics/SVG/1.1/DTD/svg11.dtd">
<svg version="1.1" id="Layer_1" xmlns="http://www.w3.org/2000/svg" xmlns:xlink="http://www.w3.org/1999/xlink" x="0px" y="0px"
	 width="661.24px" height="661.24px" viewBox="269.383 269.383 661.24 661.24"
	 enable-background="new 269.383 269.383 661.24 661.24" xml:space="preserve" fill="#ffffff">
<path d="M576.39,576.39H293c-13.035,0-23.617,10.578-23.617,23.613c0,13.039,10.582,23.617,23.617,23.617h283.39v283.39
	c0,13.035,10.578,23.613,23.613,23.613c13.039,0,23.617-10.578,23.617-23.613V623.62h283.39c13.035,0,23.613-10.578,23.613-23.617
	c0-13.035-10.578-23.613-23.613-23.613H623.62V293c0-13.035-10.578-23.617-23.617-23.617c-13.035,0-23.613,10.582-23.613,23.617
	V576.39z"/>
</svg>
