<?xml version="1.0" encoding="utf-8"?>
<!-- Generator: Adobe Illustrator 16.0.3, SVG Export Plug-In . SVG Version: 6.00 Build 0)  -->
<!DOCTYPE svg PUBLIC "-//W3C//DTD SVG 1.1//EN" "http://www.w3.org/Graphics/SVG/1.1/DTD/svg11.dtd">
<svg version="1.1" id="Layer_1" xmlns="http://www.w3.org/2000/svg" xmlns:xlink="http://www.w3.org/1999/xlink" x="0px" y="0px"
	 width="732.688px" height="740.549px" viewBox="230 237.312 732.688 740.549" enable-background="new 230 237.312 732.688 740.549"
	 xml:space="preserve">
<g>
	<defs>
		<rect id="SVGID_1_" x="284.952" y="308.738" width="482.8" height="613.582"/>
	</defs>
	<clipPath id="SVGID_2_">
		<use xlink:href="#SVGID_1_"  overflow="visible"/>
	</clipPath>
	<g clip-path="url(#SVGID_2_)">
		<path fill="#E0E0E0" d="M285.572,498.942v233.582c0,16.126,13.076,29.198,29.199,29.198l209.108,0.173l196.232,154.182
			c19.158,15.051,47.238,1.404,47.238-22.961v-58.395c0-16.127-13.077-29.198-29.2-29.198c-11.86,0-22.07,7.069-26.64,17.226
			c-1.643,3.652-2.324,10.479-2.324,10.479L551.8,709.569c-5.143-4.044-11.494-6.239-18.039-6.239H343.973V528.137h58.397
			c16.124,0,29.195-13.072,29.195-29.199c0-16.125-13.072-29.2-29.195-29.2h-87.593c-16.124,0-29.199,13.075-29.199,29.2
			L285.572,498.942z M720.102,315.394L577.037,427.806c-12.68,9.961-14.885,28.319-4.92,40.995
			c9.964,12.68,28.319,14.886,40.999,4.92l95.828-74.503v187.323c0,16.123,13.073,29.195,29.2,29.195
			c16.124,0,29.198-13.072,29.198-29.195V338.358c0-24.364-28.08-38.015-47.236-22.96L720.102,315.394z"/>
	</g>
</g>
<path fill="#E0E0E0" d="M857.895,875.951c11.401,11.402,29.889,11.402,41.291,0c11.402-11.401,11.402-29.889,0-41.291
	L365.929,301.404c-11.402-11.402-29.889-11.402-41.292,0c-11.402,11.402-11.402,29.889,0,41.292L857.895,875.951z"/>
</svg>
