<?xml version="1.0" encoding="utf-8"?>
<!-- Generator: Adobe Illustrator 16.0.3, SVG Export Plug-In . SVG Version: 6.00 Build 0)  -->
<!DOCTYPE svg PUBLIC "-//W3C//DTD SVG 1.1//EN" "http://www.w3.org/Graphics/SVG/1.1/DTD/svg11.dtd">
<svg version="1.1" id="Layer_1" xmlns="http://www.w3.org/2000/svg" xmlns:xlink="http://www.w3.org/1999/xlink" x="0px" y="0px"
	viewBox="77.086 404.999 612 612.001" enable-background="new 77.086 404.999 612 612.001"
	 xml:space="preserve">
<g>
	<path fill="#E0E0E0" d="M623.515,492.428H142.657c-17.39,0-34.07,6.908-46.367,19.205S77.086,540.61,77.086,558v306
		c0,17.39,6.908,34.069,19.204,46.366c12.297,12.297,28.977,19.205,46.367,19.205h480.856c17.391,0,34.069-6.908,46.366-19.205
		c12.298-12.297,19.205-28.978,19.205-46.366V558c0-17.391-6.909-34.07-19.205-46.367S640.904,492.428,623.515,492.428z
		 M645.371,864c0,5.796-2.302,11.356-6.401,15.454c-4.099,4.101-9.657,6.401-15.455,6.401H142.657
		c-5.796,0-11.356-2.302-15.455-6.401c-4.101-4.099-6.402-9.657-6.402-15.454V558c0-5.797,2.302-11.356,6.402-15.455
		c4.098-4.101,9.658-6.402,15.455-6.402h480.856c5.796,0,11.356,2.303,15.455,6.402c4.101,4.098,6.401,9.657,6.401,15.455
		L645.371,864L645.371,864z"/>
	<path fill="#E0E0E0" d="M481.442,973.285H284.729c-7.809,0-15.024,4.166-18.929,10.929c-3.905,6.763-3.905,15.095,0,21.857
		c3.904,6.762,11.12,10.929,18.929,10.929h196.714c7.81,0,15.023-4.167,18.93-10.929c3.905-6.764,3.904-15.096,0-21.857
		S489.253,973.285,481.442,973.285z"/>
</g>
</svg>
