<?xml version="1.0" encoding="utf-8"?>
<!-- Generator: Adobe Illustrator 16.0.3, SVG Export Plug-In . SVG Version: 6.00 Build 0)  -->
<!DOCTYPE svg PUBLIC "-//W3C//DTD SVG 1.1//EN" "http://www.w3.org/Graphics/SVG/1.1/DTD/svg11.dtd">
<svg version="1.1" id="Layer_1" xmlns="http://www.w3.org/2000/svg" xmlns:xlink="http://www.w3.org/1999/xlink" x="0px" y="0px"
	 width="798.002px" height="843.152px" viewBox="31.198 179.026 798.002 843.152"
	 enable-background="new 31.198 179.026 798.002 843.152" xml:space="preserve">
<g>
	<path fill="#FFFFFF" d="M524.4,187.2L244.8,416.4l-156,14.398c-32.398,3.603-57.602,30-57.602,63.604V706.8
		c0,32.398,25.197,60,57.602,63.604l156,14.396L524.4,1014c22.801,19.199,57.604,2.398,57.604-27.602V214.798
		c-1.199-29.992-34.803-46.793-57.604-27.594V187.2z"/>
	<path fill="#FFFFFF" d="M794.4,468c-15.602-26.398-51.602-32.398-75.602-12l-3.603,2.398
		c-16.802,14.397-21.603,39.602-10.802,58.801c13.199,24,21.603,51.603,21.603,81.603s-8.397,57.603-21.603,81.603
		c-10.801,19.198-6,44.397,10.802,58.801l3.603,2.397c22.801,20.398,60,15.604,75.602-12c21.604-38.396,34.801-84,34.801-132
		c0-45.602-13.197-90-34.801-129.6V468z"/>
</g>
</svg>
