<?xml version="1.0" encoding="utf-8"?>
<!-- Generator: Adobe Illustrator 16.0.3, SVG Export Plug-In . SVG Version: 6.00 Build 0)  -->
<!DOCTYPE svg PUBLIC "-//W3C//DTD SVG 1.1//EN" "http://www.w3.org/Graphics/SVG/1.1/DTD/svg11.dtd">
<svg version="1.1" id="Layer_1" xmlns="http://www.w3.org/2000/svg" xmlns:xlink="http://www.w3.org/1999/xlink" x="0px" y="0px"
	 width="1138.801px" height="843.152px" viewBox="31.198 179.026 1138.801 843.152"
	 enable-background="new 31.198 179.026 1138.801 843.152" xml:space="preserve">
<g>
	<path fill="#FFFFFF" d="M524.4,187.2L244.8,416.4l-156,14.398c-32.398,3.602-57.602,30-57.602,63.603V706.8
		c0,32.398,25.198,60,57.602,63.603l156,14.397L524.4,1014c22.801,19.199,57.603,2.398,57.603-27.602V214.798
		c-1.199-29.992-34.802-46.793-57.603-27.594V187.2z"/>
	<path fill="#FFFFFF" d="M794.4,468c-15.602-26.398-51.602-32.398-75.602-12l-3.602,2.398
		c-16.802,14.398-21.603,39.602-10.802,58.801c13.199,24,21.603,51.603,21.603,81.603s-8.398,57.602-21.603,81.602
		c-10.801,19.199-6,44.398,10.802,58.801l3.602,2.398c22.801,20.398,60,15.603,75.602-12c21.603-38.397,34.801-84,34.801-132
		c0-45.602-13.198-90-34.801-129.6V468z"/>
	<path fill="#FFFFFF" d="M920.4,349.2c-16.801-24-51.602-27.602-73.199-8.398l-2.398,2.398c-18,16.801-21.602,44.398-7.199,64.801
		c38.398,54,60,121.2,60,192c0,72-22.801,138-60,192c-14.397,20.398-10.801,48,7.199,64.801l2.398,2.398
		c21.603,19.199,56.398,15.603,73.199-8.398c50.398-70.801,79.199-157.2,79.199-250.8c0.004-93.602-28.797-180-79.199-250.8V349.2z"
		/>
	<path fill="#FFFFFF" d="M1046.4,232.8c-18-22.801-50.397-26.398-72-7.199l-3.602,2.398c-19.199,16.801-21.602,45.602-6,66
		c64.801,85.199,102,190.8,102,304.8s-38.397,220.801-102,304.801c-15.602,20.397-13.199,49.198,6,66l3.602,2.397
		c21.603,19.199,54,15.603,72-7.199c78-102,123.6-229.199,123.6-367.199c0-135.601-45.602-262.8-123.6-364.8V232.8z"/>
</g>
</svg>
