<?xml version="1.0" encoding="utf-8"?>
<!-- Generator: Adobe Illustrator 16.0.3, SVG Export Plug-In . SVG Version: 6.00 Build 0)  -->
<!DOCTYPE svg PUBLIC "-//W3C//DTD SVG 1.1//EN" "http://www.w3.org/Graphics/SVG/1.1/DTD/svg11.dtd">
<svg version="1.1" id="Layer_1" xmlns="http://www.w3.org/2000/svg" xmlns:xlink="http://www.w3.org/1999/xlink" x="0px" y="0px"
	 width="1139.697px" height="971.088px" viewBox="30 114.455 1139.697 971.088"
	 enable-background="new 30 114.455 1139.697 971.088" xml:space="preserve">
<g>
	<path fill="#FFFFFF" d="M600,123.6l-322.8,264L96,404.401c-37.199,3.602-66,34.801-66,73.199V722.4
		c0,37.198,28.801,69.602,66,73.198L277.2,812.4l322.8,264c26.397,21.602,66,2.398,66-31.199v-890.4
		c0-33.604-39.603-52.805-66-31.203V123.6z"/>
	<path fill="#FFFFFF" d="M1066.8,600l98.397-98.398c6-6,6-16.801,0-22.801l-57.602-57.602c-6-6-16.801-6-22.801,0l-98.398,98.397
		l-98.398-98.397c-6-6-16.801-6-22.801,0l-57.602,57.602c-6,6-6,16.801,0,22.801L905.993,600l-98.397,98.397c-6,6-6,16.802,0,22.802
		l57.602,57.602c6,6,16.801,6,22.801,0l98.398-98.397l98.398,98.397c6,6,16.801,6,22.801,0l57.602-57.602c6-6,6-16.802,0-22.802
		L1066.8,600z"/>
</g>
</svg>
