<?xml version="1.0" encoding="UTF-8"?>
<svg width="1200pt" height="1200pt" version="1.1" viewBox="0 0 1200 1200" xmlns="http://www.w3.org/2000/svg">
 <g>
  <path d="m600 1140c278.41 0 504.91-226.5 504.91-504.9 0-178.39-95.684-345.38-249.71-435.76-22.875-13.406-52.273-5.7656-65.688 17.109-13.418 22.863-5.7617 52.277 17.105 65.695 124.78 73.219 202.29 208.46 202.29 352.96 0 225.47-183.43 408.9-408.91 408.9s-408.91-183.43-408.91-408.9c0-145.41 78.254-281.09 204.22-354.08 22.938-13.289 30.758-42.656 17.469-65.602-13.293-22.945-42.676-30.773-65.594-17.461-155.5 90.105-252.1 257.61-252.1 437.14 0 278.4 226.5 504.9 504.91 504.9z"/>
  <path d="m552 108v412.86c0 26.508 21.492 48 48 48s48-21.492 48-48v-412.86c0-26.508-21.492-48-48-48s-48 21.492-48 48z"/>
 </g>
</svg>
