<?xml version="1.0" encoding="UTF-8"?>
<svg width="1200pt" height="1200pt" version="1.1" viewBox="0 0 1200 1200" xmlns="http://www.w3.org/2000/svg">
 <path d="m619.65 291.67c-4.7852-4.7891-10.578-7.1797-17.379-7.1797s-12.598 2.3906-17.383 7.1797c-4.7852 4.7852-7.1797 10.578-7.1797 17.379v237.67c0 6.8008 2.3945 12.598 7.1797 17.383 4.7852 4.7852 10.582 7.1797 17.383 7.1797s12.594-2.3945 17.379-7.1797c4.7891-4.7852 7.1797-10.582 7.1797-17.383v-237.67c0-6.8008-2.3906-12.594-7.1797-17.379m130.74 112.98c10.328 7.8086 20.402 16.625 30.227 26.449 49.879 49.879 74.816 110.09 74.816 180.62 0 70.281-24.938 130.36-74.816 180.24-49.625 49.879-109.7 74.816-180.24 74.816-70.531 0-130.74-24.938-180.61-74.816-49.879-49.879-74.816-109.96-74.816-180.24 0-70.531 24.938-130.74 74.816-180.62 9.5703-9.5703 19.773-18.262 30.605-26.07 5.2891-4.2812 8.4375-9.6992 9.4453-16.246 1.0078-6.8047-0.37891-12.848-4.1562-18.141-4.2812-5.5391-9.6992-8.8164-16.246-9.8242-6.8047-1.0078-12.848 0.50391-18.141 4.5352-12.594 9.0703-24.684 19.398-36.273 30.984-59.449 59.449-89.172 131.24-89.172 215.38 0 83.883 29.723 155.55 89.172 215 59.449 59.449 131.24 89.176 215.38 89.176 84.137 0 155.8-29.727 215-89.176 59.449-59.449 89.176-131.12 89.176-215 0-84.137-29.727-155.93-89.176-215.38-11.336-11.336-23.176-21.664-35.516-30.984-5.293-4.0312-11.336-5.543-18.141-4.5352-6.8008 0.75781-12.215 3.9062-16.246 9.4492-4.0312 5.2891-5.543 11.336-4.5352 18.137 0.75781 6.8008 3.9062 12.215 9.4492 16.246z"/>
</svg>
