<?xml version="1.0" encoding="UTF-8"?>
<svg width="1200pt" height="1200pt" version="1.1" viewBox="0 0 1200 1200" xmlns="http://www.w3.org/2000/svg">
 <g>
  <path d="m672.25 534.96-547.68-316.21c-56.133-31.988-112.57 1.8633-112.57 64.957v632.45c0 45.926 28.066 77.773 67.883 77.773 14.688 0 29.531-4.1758 44.605-12.828l547.69-316.51c27.059-15.469 42.527-39.133 42.527-64.836 0.0625-25.516-15.395-49.164-42.453-64.789zm-32.473 73.605-547.68 316.39c-6.793 4.0195-11.137 4.332-11.977 4.332l-0.16797 0.30078c-0.99609-0.76953-2.7734-4.6445-2.7734-13.285v-632.61c0-8.6641 1.7773-12.527 2.9414-12.996 1.0781 0 5.1836 0.3125 11.977 4.332l547.69 316.05c7.6562 4.3203 9.7422 8.1953 10.043 8.4961-0.3125 0.92578-2.5547 4.8008-10.055 8.9766z"/>
  <path d="m937.82 177.77c-18.18 0-32.473 14.543-32.473 32.316v779.81c0 17.785 14.375 32.316 32.473 32.316 17.773 0 32.305-14.531 32.305-32.316v-779.8c0.011719-17.785-14.605-32.328-32.305-32.328z"/>
  <path d="m1155.8 177.77c-18.168 0-32.473 14.543-32.473 32.316v779.81c0 17.785 14.375 32.316 32.473 32.316 17.629 0 32.16-14.531 32.16-32.316v-779.8c0-17.785-14.605-32.328-32.16-32.328z"/>
 </g>
</svg>
