<?xml version="1.0" encoding="UTF-8"?>
<svg width="1200pt" height="1200pt" version="1.1" viewBox="0 0 1200 1200" xmlns="http://www.w3.org/2000/svg">
 <defs>
  <clipPath id="a">
   <path d="m230 256h568v721.86h-568z"/>
  </clipPath>
 </defs>
 <g clip-path="url(#a)">
  <path d="m230.73 479.77v274.8c0 18.973 15.383 34.352 34.352 34.352l246.01 0.20312 230.86 181.39c22.539 17.707 55.574 1.6523 55.574-27.012v-68.699c0-18.973-15.383-34.352-34.352-34.352-13.953 0-25.965 8.3164-31.34 20.266-1.9336 4.2969-2.7344 12.328-2.7344 12.328l-185.16-145.48c-6.0508-4.7578-13.523-7.3398-21.223-7.3398h-223.28v-206.11h68.703c18.969 0 34.348-15.379 34.348-34.352 0-18.969-15.379-34.352-34.348-34.352h-103.05c-18.969 0-34.352 15.383-34.352 34.352zm511.21-215.94-168.31 132.25c-14.918 11.719-17.512 33.316-5.7891 48.23 11.723 14.918 33.316 17.512 48.234 5.7891l112.74-87.652v220.38c0 18.969 15.379 34.348 34.352 34.348 18.969 0 34.352-15.379 34.352-34.348v-291.98c0-28.664-33.035-44.723-55.574-27.012z" fill-rule="evenodd"/>
 </g>
 <path d="m904.05 923.31c13.414 13.414 35.164 13.414 48.578 0 13.414-13.414 13.414-35.164 0-48.578l-627.36-627.36c-13.414-13.414-35.164-13.414-48.578 0-13.414 13.414-13.414 35.164 0 48.578z" fill-rule="evenodd"/>
</svg>
