<?xml version="1.0" encoding="utf-8"?>
<!-- Generator: Adobe Illustrator 16.0.3, SVG Export Plug-In . SVG Version: 6.00 Build 0)  -->
<!DOCTYPE svg PUBLIC "-//W3C//DTD SVG 1.1//EN" "http://www.w3.org/Graphics/SVG/1.1/DTD/svg11.dtd">
<svg version="1.1" id="Layer_1" xmlns="http://www.w3.org/2000/svg" xmlns:xlink="http://www.w3.org/1999/xlink" x="0px" y="0px"
	viewBox="178.09 178.12 843.76 843.76" enable-background="new 178.09 178.12 843.76 843.76"
	 xml:space="preserve">
<path fill="#e0e0e0" d="M1003.1,520.31H679.66V196.87c0-10.355-8.395-18.75-18.75-18.75H539.03c-10.355,0-18.75,8.395-18.75,18.75
	V520.31H196.84c-10.355,0-18.75,8.395-18.75,18.75V660.94c0,10.354,8.395,18.75,18.75,18.75h323.44v323.439
	c0,10.355,8.395,18.75,18.75,18.75h121.88c10.354,0,18.75-8.395,18.75-18.75V679.69H1003.1c10.355,0,18.75-8.395,18.75-18.75V539.06
	C1021.85,528.705,1013.456,520.31,1003.1,520.31z"/>
</svg>
