<?xml version="1.0" encoding="UTF-8"?>
<svg width="1200pt" height="1200pt" version="1.1" viewBox="0 0 1200 1200" xmlns="http://www.w3.org/2000/svg">
 <g>
  <path d="m600 1125c109.7-0.003906 216.01-38.016 300.85-107.57 84.836-69.551 142.96-166.34 164.47-273.91 21.52-107.57 5.1055-219.27-46.449-316.11-51.555-96.832-135.06-172.81-236.32-215.02-9.2344-4.1562-19.754-4.4023-29.172-0.68359-9.418 3.7188-16.934 11.09-20.832 20.434-3.9023 9.3477-3.8555 19.871 0.125 29.184 3.9766 9.3086 11.555 16.617 21.004 20.254 85.25 35.543 155.55 99.52 198.95 181.05 43.402 81.531 57.215 175.58 39.09 266.15-18.121 90.566-67.059 172.06-138.49 230.61-71.43 58.555-160.94 90.551-253.3 90.551s-181.88-31.996-253.3-90.551c-71.43-58.551-120.37-140.04-138.49-230.61-18.121-90.57-4.3086-184.62 39.09-266.15 43.402-81.531 113.71-145.51 198.96-181.05 9.4492-3.6367 17.023-10.945 21.004-20.254 3.9805-9.3125 4.0234-19.836 0.125-29.184-3.9023-9.3438-11.414-16.715-20.832-20.434-9.418-3.7188-19.941-3.4727-29.172 0.68359-101.27 42.211-184.79 118.2-236.34 215.05-51.551 96.848-67.953 208.57-46.418 316.14 21.539 107.58 79.684 204.38 164.55 273.91 84.863 69.539 191.2 107.53 300.91 107.5z"/>
  <path d="m562.5 112.5v437.06c0 13.398 7.1484 25.777 18.75 32.477 11.602 6.6992 25.898 6.6992 37.5 0 11.602-6.6992 18.75-19.078 18.75-32.477v-437.06c0-13.398-7.1484-25.777-18.75-32.477-11.602-6.6992-25.898-6.6992-37.5 0-11.602 6.6992-18.75 19.078-18.75 32.477z"/>
 </g>
</svg>
