<?xml version="1.0" encoding="utf-8"?>
<!-- Generator: Adobe Illustrator 16.0.3, SVG Export Plug-In . SVG Version: 6.00 Build 0)  -->
<!DOCTYPE svg PUBLIC "-//W3C//DTD SVG 1.1//EN" "http://www.w3.org/Graphics/SVG/1.1/DTD/svg11.dtd">
<svg version="1.1" id="Layer_1" xmlns="http://www.w3.org/2000/svg" xmlns:xlink="http://www.w3.org/1999/xlink" x="0px" y="0px"
	 width="608.729px" height="631.402px" viewBox="295.829 284.49 608.729 631.402"
	 enable-background="new 295.829 284.49 608.729 631.402" xml:space="preserve">
<path d="M619.65,291.67c-4.785-4.789-10.578-7.18-17.38-7.18c-6.801,0-12.598,2.391-17.383,7.18
	c-4.785,4.785-7.18,10.578-7.18,17.379v237.67c0,6.801,2.395,12.599,7.18,17.383c4.785,4.785,10.582,7.18,17.383,7.18
	c6.802,0,12.595-2.395,17.38-7.18c4.789-4.785,7.18-10.582,7.18-17.383v-237.67C626.83,302.248,624.439,296.455,619.65,291.67
	 M750.39,404.65c10.328,7.809,20.402,16.625,30.228,26.448c49.879,49.88,74.815,110.091,74.815,180.62
	c0,70.281-24.938,130.36-74.815,180.24c-49.625,49.879-109.7,74.816-180.24,74.816c-70.531,0-130.74-24.938-180.61-74.816
	c-49.879-49.879-74.816-109.96-74.816-180.24c0-70.531,24.938-130.74,74.816-180.62c9.57-9.57,19.773-18.262,30.605-26.069
	c5.289-4.281,8.438-9.699,9.445-16.246c1.008-6.805-0.379-12.849-4.156-18.142c-4.281-5.539-9.699-8.816-16.246-9.824
	c-6.805-1.008-12.848,0.504-18.141,4.535c-12.594,9.07-24.684,19.398-36.273,30.984c-59.449,59.449-89.172,131.24-89.172,215.38
	c0,83.883,29.723,155.55,89.172,215c59.449,59.449,131.24,89.176,215.38,89.176c84.138,0,155.8-29.727,215-89.176
	c59.449-59.449,89.177-131.12,89.177-215c0-84.137-29.728-155.93-89.177-215.38c-11.336-11.336-23.176-21.664-35.516-30.983
	c-5.293-4.031-11.336-5.544-18.141-4.536c-6.801,0.758-12.216,3.906-16.246,9.449c-4.031,5.289-5.543,11.337-4.535,18.138
	c0.758,6.801,3.906,12.215,9.449,16.246H750.39z"/>
</svg>
