<?xml version="1.0" encoding="utf-8"?>
<!-- Generator: Adobe Illustrator 16.0.3, SVG Export Plug-In . SVG Version: 6.00 Build 0)  -->
<!DOCTYPE svg PUBLIC "-//W3C//DTD SVG 1.1//EN" "http://www.w3.org/Graphics/SVG/1.1/DTD/svg11.dtd">
<svg version="1.1" id="Layer_1" xmlns="http://www.w3.org/2000/svg" xmlns:xlink="http://www.w3.org/1999/xlink" x="0px" y="0px"
	 width="743.039px" height="763.732px" viewBox="228.477 187.198 743.039 763.732"
	 enable-background="new 228.477 187.198 743.039 763.732" xml:space="preserve">
<g>
	<path d="M641.039,507.419v-279.18c0-22.679-18.357-41.041-41.041-41.041c-22.679,0-41.042,18.358-41.042,41.041v279.18
		c0,22.68,18.359,41.042,41.042,41.042C622.678,548.461,641.039,530.1,641.039,507.419z"/>
	<path d="M834.359,291.06c-17.279-14.042-43.199-11.879-57.242,5.4c-14.041,17.279-11.879,43.199,5.4,57.242
		c68.043,55.079,106.92,137.159,106.92,224.64c0,159.84-129.6,289.44-289.439,289.44c-159.84-0.006-289.44-128.52-289.44-288.369
		c0-87.479,38.879-169.561,106.92-224.641c17.279-14.042,20.521-39.958,5.4-57.241c-14.042-17.279-39.958-20.521-57.242-5.4
		c-87.479,70.203-137.16,174.959-137.16,287.28c0,205.201,166.32,371.52,371.52,371.52c205.2,0,371.52-166.319,371.52-371.52
		c0-112.32-49.679-217.08-137.159-288.36L834.359,291.06z"/>
</g>
</svg>
