<?xml version="1.0" encoding="utf-8"?>
<!-- Generator: Adobe Illustrator 16.0.3, SVG Export Plug-In . SVG Version: 6.00 Build 0)  -->
<!DOCTYPE svg PUBLIC "-//W3C//DTD SVG 1.1//EN" "http://www.w3.org/Graphics/SVG/1.1/DTD/svg11.dtd">
<svg version="1.1" id="Layer_1" xmlns="http://www.w3.org/2000/svg" xmlns:xlink="http://www.w3.org/1999/xlink" x="0px" y="0px"
	 width="1050px" height="900px" viewBox="75 225 1050 900" enable-background="new 75 225 1050 900" xml:space="preserve">
<g>
	<path fill="#E0E0E0" d="M1012.5,225h-825c-29.836,0-58.453,11.852-79.551,32.949C86.851,279.047,75,307.664,75,337.5v525
		c0,29.836,11.852,58.453,32.949,79.551C129.047,963.149,157.664,975,187.5,975h825c29.836,0,58.453-11.852,79.551-32.949
		C1113.149,920.953,1125,892.336,1125,862.5v-525c0-29.836-11.853-58.453-32.949-79.551C1070.953,236.851,1042.336,225,1012.5,225z
		 M1050,862.5c0,9.945-3.949,19.484-10.984,26.516c-7.031,7.035-16.569,10.984-26.516,10.984h-825
		c-9.945,0-19.484-3.949-26.516-10.984C153.949,881.984,150,872.446,150,862.5v-525c0-9.945,3.949-19.484,10.984-26.516
		C168.015,303.949,177.554,300,187.5,300h825c9.945,0,19.484,3.949,26.516,10.984c7.035,7.031,10.984,16.569,10.984,26.516V862.5z"
		/>
	<path fill="#E0E0E0" d="M768.75,1050h-337.5c-13.398,0-25.777,7.148-32.477,18.75c-6.699,11.602-6.699,25.898,0,37.5
		S417.851,1125,431.25,1125h337.5c13.398,0,25.777-7.148,32.477-18.75s6.699-25.898,0-37.5S782.149,1050,768.75,1050z"/>
</g>
</svg>
