<?xml version="1.0" encoding="utf-8"?>
<!-- Generator: Adobe Illustrator 16.0.3, SVG Export Plug-In . SVG Version: 6.00 Build 0)  -->
<!DOCTYPE svg PUBLIC "-//W3C//DTD SVG 1.1//EN" "http://www.w3.org/Graphics/SVG/1.1/DTD/svg11.dtd">
<svg version="1.1" id="Layer_1" xmlns="http://www.w3.org/2000/svg" xmlns:xlink="http://www.w3.org/1999/xlink" x="0px" y="0px"
	 width="372.418px" height="793.866px" viewBox="413.797 213.518 372.418 793.866"
	 enable-background="new 413.797 213.518 372.418 793.866" xml:space="preserve">
<g>
	<path fill="#FFFFFF" d="M724.14,686.28V337.66c0-44.352-23.66-85.332-62.066-107.51c-38.409-22.176-85.729-22.176-124.14,0
		c-38.406,22.176-62.066,63.156-62.066,107.51v348.62c-19.44,16.694-35.051,37.391-45.762,60.672s-16.273,48.598-16.309,74.223
		c0,49.388,19.616,96.75,54.539,131.67c34.922,34.922,82.28,54.539,131.67,54.539c49.389,0,96.746-19.617,131.67-54.539
		c34.922-34.918,54.539-82.28,54.539-131.67c-0.035-25.625-5.598-50.94-16.31-74.223c-10.711-23.281-26.319-43.978-45.762-60.672
		H724.14z M600,961.45c-37.759,0.555-74.195-13.875-101.341-40.125c-27.145-26.254-42.78-62.191-43.487-99.945
		c0.109-42.695,20.065-82.914,54-108.83l8.07-6.207V337.653c0-29.566,15.772-56.891,41.379-71.672
		c25.604-14.785,57.151-14.785,82.758,0c25.604,14.781,41.379,42.105,41.379,71.672v368.479l8.07,6.207
		c33.992,25.957,53.953,66.267,54,109.04c-0.707,37.754-16.344,73.691-43.488,99.945C674.196,947.575,637.758,962.005,600,961.45
		L600,961.45z"/>
	<path fill="#FFFFFF" d="M620.69,743.79V337.65c0-7.395-3.945-14.223-10.348-17.918c-6.398-3.695-14.289-3.695-20.688,0
		c-6.402,3.695-10.348,10.523-10.348,17.918v406.14c-18.021,3.152-34.271,12.777-45.695,27.062
		c-11.43,14.285-17.25,32.25-16.371,50.523c0,29.566,15.773,56.887,41.379,71.672c25.605,14.781,57.152,14.781,82.759,0
		c25.604-14.785,41.379-42.104,41.379-71.672c0.879-18.273-4.941-36.238-16.371-50.523
		C654.959,756.567,638.709,746.942,620.69,743.79L620.69,743.79z"/>
</g>
</svg>
