<?xml version="1.0" encoding="UTF-8"?>
<svg width="1200pt" height="1200pt" version="1.1" viewBox="0 0 1200 1200" xmlns="http://www.w3.org/2000/svg">
 <g>
  <path fill="#ffffff" d="m454.88 546.75 114.75 160.5c7.0352 9.8945 18.422 15.77 30.562 15.77s23.527-5.875 30.562-15.77l114.75-160.5c5.3633-7.5352 7.7539-16.785 6.7148-25.977-1.043-9.1875-5.4453-17.668-12.359-23.812-6.9141-6.1406-15.855-9.5117-25.105-9.4609h-229.5c-9.207 0.042969-18.074 3.4688-24.918 9.6289-6.8398 6.1602-11.176 14.621-12.184 23.77-1.0078 9.1523 1.3867 18.352 6.7266 25.852z"/>
  <path fill="#ffffff" d="m112.5 900c-13.398 0-25.777-7.1484-32.477-18.75-6.6992-11.602-6.6992-25.898 0-37.5 6.6992-11.602 19.078-18.75 32.477-18.75h856.12c15.785-0.20312 31.191-4.8477 44.457-13.402 13.266-8.5547 23.852-20.676 30.543-34.973 5.8867-22.145 1.3281-45.762-12.375-64.125-14.383-21.422-37.672-35.203-63.375-37.5-16.199 1.6055-31.676 7.4883-44.855 17.043-13.176 9.5547-23.582 22.438-30.145 37.332-6.0273 11.992-17.996 19.855-31.395 20.629-13.398 0.77344-26.195-5.6602-33.562-16.875-7.3711-11.219-8.1953-25.512-2.168-37.504 12.742-27.75 32.965-51.395 58.402-68.289 25.438-16.891 55.078-26.355 85.598-27.336 49.297 2.9336 94.449 28.559 122.25 69.375 28.082 36.859 37.242 84.754 24.75 129.38-11.293 29.68-31.309 55.238-57.418 73.312s-57.078 27.816-88.832 27.938z"/>
  <path fill="#ffffff" d="m1087.5 1012.5h-975c-13.398 0-25.777-7.1484-32.477-18.75-6.6992-11.602-6.6992-25.898 0-37.5 6.6992-11.602 19.078-18.75 32.477-18.75h975c13.398 0 25.777 7.1484 32.477 18.75 6.6992 11.602 6.6992 25.898 0 37.5-6.6992 11.602-19.078 18.75-32.477 18.75z"/>
  <path fill="#ffffff" d="m1087.5 1125h-975c-13.398 0-25.777-7.1484-32.477-18.75-6.6992-11.602-6.6992-25.898 0-37.5 6.6992-11.602 19.078-18.75 32.477-18.75h975c13.398 0 25.777 7.1484 32.477 18.75 6.6992 11.602 6.6992 25.898 0 37.5-6.6992 11.602-19.078 18.75-32.477 18.75z"/>
  <path fill="#ffffff" d="m600 637.5c-9.9453 0-19.484-3.9492-26.516-10.984-7.0352-7.0312-10.984-16.57-10.984-26.516v-450c0-13.398 7.1484-25.777 18.75-32.477 11.602-6.6992 25.898-6.6992 37.5 0 11.602 6.6992 18.75 19.078 18.75 32.477v450c0 9.9453-3.9492 19.484-10.984 26.516-7.0312 7.0352-16.57 10.984-26.516 10.984z"/>
 </g>
</svg>
