<?xml version="1.0" encoding="utf-8"?>
<!-- Generator: Adobe Illustrator 16.0.3, SVG Export Plug-In . SVG Version: 6.00 Build 0)  -->
<!DOCTYPE svg PUBLIC "-//W3C//DTD SVG 1.1//EN" "http://www.w3.org/Graphics/SVG/1.1/DTD/svg11.dtd">
<svg version="1.1" id="Layer_1" xmlns="http://www.w3.org/2000/svg" xmlns:xlink="http://www.w3.org/1999/xlink" x="0px" y="0px"
	 width="1025px" height="975.25px" viewBox="87.5 112.5 1025 975.25" enable-background="new 87.5 112.5 1025 975.25"
	 xml:space="preserve">
<g>
	<path fill="#FFFFFF" d="M650,662.5H550c-7,0-12.5,5.5-12.5,12.5v162.5H475c-4.5,0-8.5,2.25-10.75,6.25
		c-2.25,3.75-2.25,8.5-0.25,12.5l125,225c2.25,4,6.5,6.5,11,6.5s8.75-2.5,11-6.5l125-225c2.25-3.75,2-8.5-0.25-12.5
		c-2.25-3.75-6.25-6.25-10.75-6.25h-62.5V675C662.5,668,657,662.5,650,662.5z"/>
	<path fill="#FFFFFF" d="M612.5,225V125c0-7-5.5-12.5-12.5-12.5s-12.5,5.5-12.5,12.5v100c0,7,5.5,12.5,12.5,12.5
		S612.5,232,612.5,225z"/>
	<path fill="#FFFFFF" d="M387.75,325.25c3.25,0,6.5-1.25,8.75-3.75c5-5,5-12.75,0-17.75L325.75,233c-5-5-12.75-5-17.75,0
		s-5,12.75,0,17.75l70.75,70.75C381.5,324.25,384.75,325.25,387.75,325.25z"/>
	<path fill="#FFFFFF" d="M200,512.5c-7,0-12.5,5.5-12.5,12.5s5.5,12.5,12.5,12.5h100c7,0,12.5-5.5,12.5-12.5s-5.5-12.5-12.5-12.5
		H200z"/>
	<path fill="#FFFFFF" d="M900,537.5h100c7,0,12.5-5.5,12.5-12.5s-5.5-12.5-12.5-12.5H900c-7,0-12.5,5.5-12.5,12.5
		S893,537.5,900,537.5z"/>
	<path fill="#FFFFFF" d="M891.75,233.25c-5-5-12.75-5-17.75,0L803.25,304c-5,5-5,12.75,0,17.75c2.5,2.5,5.75,3.75,8.75,3.75
		s6.5-1.25,8.75-3.75L891.5,251C896.5,246,896.5,238.25,891.75,233.25z"/>
	<path fill="#FFFFFF" d="M375,537.5h450c7,0,12.5-5.5,12.5-12.5c0-131-106.5-237.5-237.5-237.5S362.5,394,362.5,525
		C362.5,532,368,537.5,375,537.5z"/>
	<path fill="#FFFFFF" d="M1100,562.5H100c-7,0-12.5,5.5-12.5,12.5s5.5,12.5,12.5,12.5h1000c7,0,12.5-5.5,12.5-12.5
		S1107,562.5,1100,562.5z"/>
	<path fill="#FFFFFF" d="M975,612.5H225c-7,0-12.5,5.5-12.5,12.5s5.5,12.5,12.5,12.5h750c7,0,12.5-5.5,12.5-12.5
		S982,612.5,975,612.5z"/>
</g>
</svg>
