<?xml version="1.0" encoding="UTF-8"?>
<svg width="1200pt" height="1200pt" version="1.1" viewBox="0 0 1200 1200" xmlns="http://www.w3.org/2000/svg">
 <path fill="#ffffff" d="m62.336 524.2h361.27c4.25 0 8.5-1.418 12.75-2.832 92.09-15.586 162.93-96.34 162.93-192.68 0-107.68-87.84-195.51-195.51-195.51-49.586 0-97.758 18.418-134.59 52.422-35.418 32.586-58.086 79.34-60.922 127.51-1.418 18.418 11.336 34.004 29.754 35.418 17 1.418 32.586-12.75 34.004-29.754 5.668-68.004 62.336-121.84 131.76-121.84 72.254 0 130.34 59.504 130.34 131.76s-58.086 130.34-130.34 130.34h-341.44c-18.418 0-32.586 15.586-32.586 32.586 0 18.418 14.168 32.586 32.586 32.586zm556.79 195.51h-549.7c-18.418 0-32.586 14.168-32.586 32.586 0 17 14.168 31.168 32.586 31.168h549.7c60.922 0 109.09 49.586 109.09 109.09 0 60.922-48.172 110.51-109.09 110.51-35.418 0-68.004-18.418-89.258-46.754-9.918-14.168-29.754-18.418-45.336-8.5-14.168 11.336-17 31.168-7.082 45.336 32.586 46.754 85.008 73.672 141.68 73.672 96.34 0 174.26-77.922 174.26-174.26 0-94.922-77.922-172.84-174.26-172.84zm551.12-320.19c0-141.68-114.76-255.02-256.43-255.02-113.34 0-213.93 75.09-245.1 185.6-4.25 17 5.668 34.004 22.668 39.668 17 4.25 35.418-5.668 39.668-22.668 22.668-82.172 97.758-138.84 182.76-138.84 106.26 0 191.26 85.008 191.26 191.26 0 104.84-85.008 189.85-191.26 189.85h-15.586c-4.25-1.418-7.082 0-11.336 0h-824.56c-18.418 0-32.586 14.168-32.586 32.586 0 17 14.168 32.586 32.586 32.586h864.23c1.418 0 4.25-1.418 5.668-1.418 131.76-8.5 238.02-119.01 238.02-253.6z"/>
</svg>
