<?xml version="1.0" encoding="utf-8"?>
<!-- Generator: Adobe Illustrator 16.0.3, SVG Export Plug-In . SVG Version: 6.00 Build 0)  -->
<!DOCTYPE svg PUBLIC "-//W3C//DTD SVG 1.1//EN" "http://www.w3.org/Graphics/SVG/1.1/DTD/svg11.dtd">
<svg version="1.1" id="Layer_1" xmlns="http://www.w3.org/2000/svg" xmlns:xlink="http://www.w3.org/1999/xlink" x="0px" y="0px"
	 width="959.999px" height="446.876px" viewBox="0.001 56.561 959.999 446.876"
	 enable-background="new 0.001 56.561 959.999 446.876" xml:space="preserve">
<path  d="M247.429,128.178c15.414-19.279,25.873-45.165,23.114-71.617c-22.563,1.122-50.097,14.886-66.038,34.18
	c-14.313,16.522-26.981,43.492-23.679,68.835C206.155,161.772,231.459,146.916,247.429,128.178"/>
<path  d="M270.255,164.524c-36.782-2.191-68.057,20.875-85.622,20.875c-17.575,0-44.474-19.771-73.567-19.239
	c-37.866,0.556-73.002,21.966-92.217,56.018c-39.523,68.12-10.43,169.167,28.004,224.647c18.665,27.447,41.158,57.67,70.798,56.584
	c28.004-1.1,38.98-18.133,73.021-18.133c34.015,0,43.902,18.133,73.546,17.584c30.742-0.551,49.96-27.462,68.625-54.938
	c21.412-31.289,30.177-61.501,30.729-63.16c-0.551-0.549-59.278-23.078-59.823-90.632c-0.554-56.563,46.107-83.47,48.304-85.138
	C325.701,170.022,284.529,165.628,270.255,164.524"/>
<path  d="M554.968,87.222v79.776h63.819v51.055h-63.819v188.917c0,29.035,12.765,42.757,40.527,42.757
	c7.021,0,18.826-0.951,22.973-1.591v51.056c-7.021,1.916-22.652,2.875-37.014,2.875c-64.783,0-90.311-25.215-90.311-89.354V218.053
	h-48.507v-51.055h48.507V87.222H554.968z"/>
<path d="M839.372,500.149H772.04L651.099,166.998h67.013l87.116,269.008h1.277l87.116-269.008H960L839.372,500.149z"
	/>
</svg>
