<svg height='100px' width='100px'  xmlns:dc="http://purl.org/dc/elements/1.1/" xmlns:cc="http://creativecommons.org/ns#" xmlns:rdf="http://www.w3.org/1999/02/22-rdf-syntax-ns#" xmlns:svg="http://www.w3.org/2000/svg" xmlns="http://www.w3.org/2000/svg" xmlns:sodipodi="http://sodipodi.sourceforge.net/DTD/sodipodi-0.dtd" xmlns:inkscape="http://www.inkscape.org/namespaces/inkscape" version="1.1" x="0px" y="0px" viewBox="0 0 100 100"><g transform="translate(0,-952.36218)"><path style="font-size:medium;font-style:normal;font-variant:normal;font-weight:normal;font-stretch:normal;text-indent:0;text-align:start;text-decoration:none;line-height:normal;letter-spacing:normal;word-spacing:normal;text-transform:none;direction:ltr;block-progression:tb;writing-mode:lr-tb;text-anchor:start;baseline-shift:baseline;opacity:1;color:#000000;fill:#000000;fill-opacity:1;stroke:none;stroke-width:4;marker:none;visibility:visible;display:inline;overflow:visible;enable-background:accumulate;font-family:Sans;-inkscape-font-specification:Sans" d="M 7.8125 13 A 2.0002 2.0002 0 0 0 6 15 L 6 69 A 2.0002 2.0002 0 0 0 8 71 L 92 71 A 2.0002 2.0002 0 0 0 94 69 L 94 15 A 2.0002 2.0002 0 0 0 92 13 L 8 13 A 2.0002 2.0002 0 0 0 7.8125 13 z M 10 17 L 90 17 L 90 67 L 10 67 L 10 17 z M 38.71875 26 A 2.0002 2.0002 0 0 0 37 28 L 37 56 A 2.0002 2.0002 0 0 0 39.90625 57.78125 L 67.90625 43.78125 A 2.0002 2.0002 0 0 0 67.90625 40.1875 L 39.90625 26.1875 A 2.0002 2.0002 0 0 0 38.71875 26 z M 41 31.25 L 62.5 42 L 41 52.75 L 41 31.25 z M 25 73 C 21.853963 73 19.153058 75.122349 18.28125 78 L 8 78 A 2.0002 2.0002 0 0 0 7.8125 78 A 2.0021961 2.0021961 0 1 0 8 82 L 18.28125 82 C 19.153058 84.877651 21.853963 87 25 87 C 28.146037 87 30.846942 84.877651 31.71875 82 L 92 82 A 2.0002 2.0002 0 1 0 92 78 L 31.71875 78 C 30.846942 75.122349 28.146037 73 25 73 z M 25 77 C 26.680543 77 28 78.3194 28 80 C 28 81.6805 26.680543 83 25 83 C 23.319457 83 22 81.6805 22 80 C 22 78.3194 23.319457 77 25 77 z " transform="translate(0,952.36218)"></path></g></svg>
