<?xml version="1.0" encoding="utf-8"?>
<!-- Generator: Adobe Illustrator 16.0.3, SVG Export Plug-In . SVG Version: 6.00 Build 0)  -->
<!DOCTYPE svg PUBLIC "-//W3C//DTD SVG 1.1//EN" "http://www.w3.org/Graphics/SVG/1.1/DTD/svg11.dtd">
<svg version="1.1" id="Layer_1" xmlns="http://www.w3.org/2000/svg" xmlns:xlink="http://www.w3.org/1999/xlink" x="0px" y="0px"
	  viewBox="455.033 346.234 192.001 82.902"
	 enable-background="new 455.033 346.234 192.001 82.902" xml:space="preserve">
<g>
	<path d="M475.235,353.13c-0.197,0-0.197,0.102-0.296,0.197c-8.567,12.015-13.59,19.991-18.91,29.84l-0.59,1.082l-0.099,0.395
		c-0.492,0.987-0.394,2.068,0.296,2.955c3.151,4.924,20.779,10.734,60.073,10.734c29.347,0,60.565-4.727,60.565-13.588
		c0-8.373-30.726-13.394-60.565-13.394c-9.948,0-19.697,1.28-22.455,1.772c2.659-4.137,13.886-19.205,13.886-19.303
		c0.196-0.195,0.196-0.195,0.196-0.295v-0.196c-0.196-0.099-0.296-0.197-0.491-0.197L475.235,353.13L475.235,353.13z
		 M486.658,384.743c0-1.772,11.129-4.333,29.052-4.333c17.924,0,28.954,2.561,28.954,4.333c0,1.968-11.03,4.43-28.954,4.43
		C497.786,389.175,486.658,386.714,486.658,384.743L486.658,384.743z"/>
	<path d="M497.491,428.962c5.022,0.099,146.344,5.021,149.496-45.104c2.559-41.463-101.438-37.522-101.438-37.522
		c-0.195,0-0.886,0-0.886,0.491c0,0.591,0.296,0.691,0.69,0.691c28.854,0,75.732,11.52,74.256,36.34
		c-1.183,20.09-37.817,43.723-122.118,43.723c-0.395,0-0.787,0.396-0.787,0.691C496.703,428.568,496.999,428.863,497.491,428.962
		L497.491,428.962z"/>
</g>
</svg>
