<?xml version="1.0" encoding="utf-8"?>
<!-- Generator: Adobe Illustrator 16.0.3, SVG Export Plug-In . SVG Version: 6.00 Build 0)  -->
<!DOCTYPE svg PUBLIC "-//W3C//DTD SVG 1.1//EN" "http://www.w3.org/Graphics/SVG/1.1/DTD/svg11.dtd">
<svg version="1.1" id="Layer_1" xmlns="http://www.w3.org/2000/svg" xmlns:xlink="http://www.w3.org/1999/xlink" x="0px" y="0px"
	viewBox="167.082 261.166 262.301 319.528"
	 enable-background="new 167.082 261.166 262.301 319.528" xml:space="preserve">
<title>Icon-logitech-camera-blue</title>
<circle cx="295.77" cy="363.792" r="19.287"/>
<path d="M379.407,329.326h-18.453c-0.429,0-0.775,0.347-0.775,0.774l0,0v2.739H328.57c-17.102-18.126-45.659-18.958-63.785-1.856
	c-18.126,17.102-18.957,45.66-1.856,63.786c17.102,18.126,45.66,18.957,63.786,1.855c4.949-4.67,8.779-10.399,11.202-16.758h22.263
	v49.765h-89.292c-0.393-0.032-0.738,0.26-0.771,0.652c-0.002,0.02-0.003,0.042-0.003,0.063v18.573c0,0.427,0.347,0.773,0.774,0.773
	l0,0h90.959c7.5,0,18.335-1.965,18.335-17.383l0,0V330.1C380.181,329.673,379.833,329.326,379.407,329.326L379.407,329.326z
	 M328.748,379.865c-8.976,18.154-30.968,25.596-49.123,16.62c-18.154-8.975-25.595-30.968-16.62-49.123s30.968-25.596,49.123-16.62
	c7.213,3.566,13.054,9.407,16.62,16.62C333.784,357.612,333.784,369.616,328.748,379.865z"/>
<path d="M261.78,446.715c-15.458,0.659-30.304,6.227-42.384,15.894c-3.973,4.56-5.756,10.625-4.882,16.607
	c8.453,21.491,169.894,21.967,167.632-1.547c-1.607-17.024-11.906-19.286-11.906-19.286H262.136L261.78,446.715z"/>
<path d="M216.538,490.587c0,0,14.584,22.205,21.965,24.764c27.8,9.525,91.554,11.311,117.152,0
	c7.619-3.393,22.62-24.644,22.62-24.644S316.01,514.279,216.538,490.587z"/>
</svg>
