<?xml version="1.0" encoding="UTF-8"?>
<svg version="1.1" viewBox="0 0 1200 1200" xmlns="http://www.w3.org/2000/svg">
 <g>
  <path d="m191.73 834.64h817.16c12.91 0 23.328-10.402 23.328-23.328v-514.16c0-12.793-10.402-23.328-23.328-23.328h-817.16c-12.91 0-23.328 10.535-23.328 23.328v514.18c0 12.91 10.406 23.316 23.328 23.316zm10.91-524.58h795.34v485.07l-795.34 0.003906z"/>
  <path d="m719.7 857.21c-1.0078 24.457-21.324 44.016-46.02 44.016h-146.73c-24.707 0-44.891-19.441-46.02-43.895l-360.93 0.26562 0.625 25.465c0 23.699 19.309 43.141 43.141 43.141h873.1c23.832 0 43.141-19.441 43.141-43.141v-26.09z"/>
  <path d="m526.95 882.42h146.73c14.172 0 25.957-10.906 27.215-24.828h-201.16c1.25 13.918 13.047 24.828 27.207 24.828z"/>
 </g>
</svg>
