<?xml version="1.0" encoding="UTF-8"?>
<svg version="1.1" viewBox="0 0 1200 1200" xmlns="http://www.w3.org/2000/svg">
 <path d="m842.04 871.99v-521.36c0-4.6094-1.8281-9.0273-5.0898-12.289-3.2578-3.2578-7.6797-5.0898-12.285-5.0898h-747.29c-4.6094 0-9.0273 1.832-12.289 5.0898-3.2578 3.2617-5.0898 7.6797-5.0898 12.289v521.36c0 4.6094 1.832 9.0273 5.0898 12.289 3.2617 3.2578 7.6797 5.0898 12.289 5.0898h747.29c4.6055 0 9.0273-1.832 12.285-5.0898 3.2617-3.2617 5.0898-7.6797 5.0898-12.289zm-48-30.621h-686.04v-460.12h686.04zm-151.86 131.88v20.246c0 1.6328-1.3242 2.957-2.957 2.957h-376.41c-1.6367 0-2.9609-1.3242-2.9609-2.957v-20.246c0-9.9766 3.9648-19.547 11.02-26.602 7.0586-7.0547 16.625-11.02 26.605-11.02h307.09c9.9766 0 19.547 3.9648 26.602 11.02 7.0586 7.0547 11.02 16.625 11.02 26.602zm464.37-769.7h-304.53c-8.8711 0-17.379 3.5273-23.648 9.7969-6.2734 6.2734-9.7969 14.781-9.7969 23.652v36.258h56.086-0.003906c20.516 0.019532 40.184 8.1797 54.691 22.688 14.508 14.508 22.664 34.176 22.688 54.691v521.36c-0.023437 20.516-8.1797 40.184-22.688 54.691-14.508 14.504-34.176 22.664-54.691 22.688h-56.082v13.633c0 8.8711 3.5234 17.379 9.7969 23.648 6.2695 6.2734 14.777 9.7969 23.648 9.8008h304.53c8.8711-0.003906 17.379-3.5273 23.652-9.8008 6.2695-6.2695 9.793-14.777 9.793-23.648v-726.01c0-8.8711-3.5234-17.379-9.793-23.652-6.2734-6.2695-14.781-9.7969-23.652-9.7969zm-56.938 548.95c-9.5469 0-18.703-3.793-25.453-10.543-6.7539-6.75-10.547-15.91-10.547-25.457s3.793-18.703 10.547-25.457c6.75-6.75 15.906-10.543 25.453-10.543 9.5508 0 18.707 3.793 25.457 10.543 6.75 6.7539 10.543 15.91 10.543 25.457s-3.793 18.707-10.543 25.457-15.906 10.543-25.457 10.543zm0-104.5c-12.73 0-24.938-5.0586-33.941-14.059-9-9.0039-14.059-21.211-14.059-33.941s5.0586-24.938 14.059-33.941c9.0039-9 21.211-14.059 33.941-14.059 12.73 0 24.941 5.0586 33.941 14.059 9.0039 9.0039 14.059 21.211 14.059 33.941s-5.0547 24.938-14.059 33.941c-9 9-21.211 14.059-33.941 14.059z"/>
</svg>
