<?xml version="1.0" encoding="utf-8"?>
<!-- Generator: Adobe Illustrator 16.0.3, SVG Export Plug-In . SVG Version: 6.00 Build 0)  -->
<!DOCTYPE svg PUBLIC "-//W3C//DTD SVG 1.1//EN" "http://www.w3.org/Graphics/SVG/1.1/DTD/svg11.dtd">
<svg version="1.1" id="Layer_1" xmlns="http://www.w3.org/2000/svg" xmlns:xlink="http://www.w3.org/1999/xlink" x="0px" y="0px"
	 width="665.03px" height="665.03px" viewBox="267.49 267.49 665.03 665.03" enable-background="new 267.49 267.49 665.03 665.03"
	 xml:space="preserve">
<path fill="#FFFFFF" d="M600,267.49C416.539,267.49,267.49,416.54,267.49,600S416.539,932.521,600,932.521
	c183.46,0,332.52-149.051,332.52-332.521C932.52,416.54,783.47,267.49,600,267.49z M600,297.717
	c167.13,0,302.289,135.16,302.289,302.29S767.13,902.297,600,902.297c-167.12,0-302.29-135.16-302.29-302.29
	C297.71,432.887,432.869,297.717,600,297.717L600,297.717z M469.88,456.177c-3.863,0.375-7.434,2.223-9.973,5.156
	c-2.535,2.938-3.848,6.734-3.664,10.609c0.188,3.875,1.855,7.531,4.66,10.211l117.84,117.84l-117.84,117.61
	c-2.941,2.797-4.633,6.664-4.695,10.723s1.512,7.973,4.367,10.859c2.852,2.887,6.75,4.504,10.809,4.488
	c4.063-0.02,7.945-1.668,10.773-4.578l117.84-117.841l117.85,117.841c2.828,2.91,6.711,4.559,10.771,4.578
	c4.063,0.016,7.957-1.602,10.812-4.488c2.855-2.887,4.43-6.801,4.367-10.859s-1.754-7.926-4.695-10.723l-117.84-117.61
	l117.84-117.84c3.145-2.953,4.879-7.113,4.762-11.426c-0.117-4.316-2.074-8.375-5.375-11.152c-3.301-2.781-7.633-4.016-11.906-3.398
	c-3.328,0.48-6.402,2.059-8.734,4.488l-117.85,117.84l-117.84-117.84C478.958,457.384,474.439,455.731,469.88,456.177
	L469.88,456.177z"/>
</svg>
