<?xml version="1.0" encoding="utf-8"?>
<!-- Generator: Adobe Illustrator 16.0.3, SVG Export Plug-In . SVG Version: 6.00 Build 0)  -->
<!DOCTYPE svg PUBLIC "-//W3C//DTD SVG 1.1//EN" "http://www.w3.org/Graphics/SVG/1.1/DTD/svg11.dtd">
<svg version="1.1" id="Layer_1" xmlns="http://www.w3.org/2000/svg" xmlns:xlink="http://www.w3.org/1999/xlink" x="0px" y="0px"
	 width="417.787px" height="216.568px" viewBox="0 0 417.787 216.568" enable-background="new 0 0 417.787 216.568"
	 xml:space="preserve" fill="#FFFFFF" >
<path fill-rule="evenodd" clip-rule="evenodd" d="M21.148,155.033c3.031,2.602,6.414,5.211,10.172,7.867
	c1.984,1.406,3.914,2.469,5.625,3.305c1.664,0.805,3.109,1.383,4.203,1.898c1.281,0.578,2.477-0.219,2.414-1.641
	c-0.234-4.609-0.211-8.969,0.031-13.047v-0.023c1.57-25.336,12.109-42.266,29.688-57.008c19.164-16.094,46.18-30.078,94.055-35.172
	c61.578-6.531,111.078,26.391,84.273,50.227c-1.68,1.508,0.313,3.961,2.133,2.633c25.055-18.352,13.883-32.398,1.641-43.289
	c-31.695-28.18-118.672-27.133-181.75-8.695C16.352,78.83-25.289,111.83,17.789,152.025
	C18.883,153.057,20.016,154.057,21.148,155.033L21.148,155.033z M65.883,153.416c-5.5-40.359,37.016-85.164,105.211-85.328
	c23.852-0.055,50.727,1.664,68.367,21.578c1.5,1.68-0.742,3.898-2.422,2.383c-29.703-26.992-110.695-16.914-128.977,11.531
	c-11.914,18.563-8.391,34.109,2.383,48.117c2.609,3.414,5.977,7.047,9.234,10.188c18.461,17.813,46.984,33.047,103.414,48.953
	c1.93,0.547,1.82,2.969-0.164,3.313c-2.805,0.492-6.914,1.43-13.383,1.797c-96.078,5.531-138.766-26.75-143.656-62.531H65.883
	L65.883,153.416L65.883,153.416z M128.211,153.416c-16.031-16.078-20.211-33.578-3.609-48.664
	c12.195-11.063,28.664-22.063,69.828-20.078c2.281,0.102,2.203,3.398-0.086,3.398c-62.352-0.156-81.063,40.844-45.102,61.883
	c2.055,1.211,4.141,2.367,6.227,3.461h0.039l0,0c30.711,16.047,65.219,20.656,99.719,21.203c38.813,0.609,78.047-4.484,131.5-21.266
	h0.172c0.75-0.273,1.508-0.531,2.25-0.766c1-0.313,1.828,0.102,2.125,0.828c0.18,0.391,0.18,0.891-0.031,1.406
	c-0.297,0.758-0.57,1.734-1.094,2.906c-0.57,1.266-1.406,2.734-2.813,4.391c-42.234,49.984-123.5,49.813-185.945,30.648
	c-30.148-9.258-57.352-23.594-73.133-39.352H128.211L128.211,153.416L128.211,153.416z M171.328,152.143
	c-3.32-1.898-6.305-4.023-8.922-6.352c-12.25-10.891-23.422-24.938,1.633-43.305c1.82-1.328,3.82,1.148,2.133,2.648
	c-19.508,17.359,1.422,39.531,38.008,47.789c1.68,0.367,3.328,0.727,5.016,1.039c12.484,2.266,26.523,2.945,41.266,1.383
	c5.836-0.602,11.695-1.367,17.477-2.344c37.211-6.367,59.875-18.789,76.563-32.813c20.445-17.164,31.375-37.289,29.727-70.086
	c-0.078-1.406,1.133-2.219,2.406-1.633c1.109,0.508,2.555,1.102,4.203,1.906c1.711,0.828,3.641,1.891,5.641,3.281
	c60.563,42.758,24.297,78.695-32.813,97.836c-3.281,1.117-6.07,1.977-9.516,2.992c-55.906,16.352-130.609,19.023-168.922-0.258
	C173.906,153.572,172.617,152.869,171.328,152.143L171.328,152.143z M30.453,54.455C72.688,4.471,153.938,4.65,216.391,23.814
	c60.883,18.688,109.719,58.086,76.781,87.992c-12.164,11.078-28.648,22.078-69.82,20.102c-2.289-0.117-2.203-3.414,0.094-3.398
	c62.344,0.156,81.055-40.852,45.094-61.891c-32.242-18.875-69.109-24.094-105.984-24.664c-39.391-0.617-79.219,4.641-133.922,22.031
	c-1.523,0.484-2.68-0.742-2.094-2.242c0.289-0.758,0.57-1.727,1.094-2.898C28.211,57.572,29.047,56.104,30.453,54.455L30.453,54.455
	L30.453,54.455z M244.445,148.471c-23.281-0.055-49.039-2.289-66.133-21.563c-1.492-1.68,0.75-3.906,2.422-2.383
	c29.711,26.992,110.719,16.914,128.977-11.523c14.898-23.195,5.688-41.641-11.594-58.313c-18.484-17.813-47-33.055-103.43-48.953
	c-1.93-0.539-1.805-2.969,0.172-3.313c2.797-0.484,6.914-1.43,13.375-1.805c202.805-11.656,167.711,145.078,41.445,147.828
	C247.938,148.494,246.188,148.471,244.445,148.471L244.445,148.471z"/>
</svg>
