<?xml version="1.0" encoding="utf-8"?>
<!-- Generator: Adobe Illustrator 16.0.3, SVG Export Plug-In . SVG Version: 6.00 Build 0)  -->
<!DOCTYPE svg PUBLIC "-//W3C//DTD SVG 1.1//EN" "http://www.w3.org/Graphics/SVG/1.1/DTD/svg11.dtd">
<svg version="1.1" id="Layer_1" xmlns="http://www.w3.org/2000/svg" xmlns:xlink="http://www.w3.org/1999/xlink" x="0px" y="0px"
	 width="700.011px" height="725px" viewBox="50.001 25 700.011 725" enable-background="new 50.001 25 700.011 725"
	 xml:space="preserve">
<path fill="#FFFFFF" d="M650,750H550c-27.581-0.081-49.919-22.42-50-50V525c-27.581-0.081-49.919-22.419-50-50V325
	c-0.745-40.676,31.624-74.254,72.3-75c0.9-0.017,1.801-0.017,2.7,0h150c40.676-0.746,74.255,31.625,75,72.3
	c0.017,0.9,0.017,1.801,0,2.7v150c-0.081,27.581-22.419,49.919-50,50v175C699.919,727.58,677.581,749.919,650,750z M525,300
	c-13.021-0.786-24.214,9.133-25,22.154c-0.058,0.947-0.058,1.898,0,2.846v150h50v225h100V475h50V325
	c0.786-13.021-9.133-24.214-22.154-25c-0.947-0.058-1.898-0.058-2.846,0H525z"/>
<path fill="#FFFFFF" d="M600,225c-55.229,0-100-44.771-100-100S544.771,25,600,25s100,44.771,100,100l0,0
	C699.838,180.161,655.161,224.838,600,225z M600,75c-27.614,0-50,22.386-50,50s22.386,50,50,50s50-22.386,50-50l0,0
	C649.919,97.419,627.581,75.081,600,75z"/>
<path fill="#FFFFFF" d="M250,504.598V300h-50v204.598c-39.052,13.807-59.518,56.658-45.71,95.711
	c13.807,39.052,56.658,59.518,95.71,45.71c39.052-13.807,59.518-56.658,45.711-95.71C288.159,528.949,271.358,512.148,250,504.598
	L250,504.598z"/>
<path fill="#FFFFFF" d="M225,750c-96.555,0.095-174.904-78.102-174.999-174.656C49.957,529.512,67.912,485.495,100,452.77V175
	c0-69.036,55.964-125,125-125s125,55.964,125,125v277.77c67.602,68.941,66.515,179.631-2.426,247.232
	C314.849,732.09,270.832,750.045,225,750z M225,100c-41.402,0.045-74.955,33.598-75,75v299.585l-8.3,7.458
	c-51.473,46.005-55.905,125.026-9.899,176.499s125.027,55.904,176.499,9.899c51.473-46.006,55.905-125.027,9.899-176.5
	c-3.112-3.481-6.417-6.787-9.899-9.898l-8.3-7.458V175C299.955,133.598,266.402,100.045,225,100z"/>
</svg>
