<?xml version="1.0" encoding="utf-8"?>
<!-- Generator: Adobe Illustrator 16.0.3, SVG Export Plug-In . SVG Version: 6.00 Build 0)  -->
<!DOCTYPE svg PUBLIC "-//W3C//DTD SVG 1.1//EN" "http://www.w3.org/Graphics/SVG/1.1/DTD/svg11.dtd">
<svg version="1.1" id="Layer_1" xmlns="http://www.w3.org/2000/svg" xmlns:xlink="http://www.w3.org/1999/xlink" x="0px" y="0px"
	 width="1025px" height="999.8px" viewBox="87.5 100 1025 999.8" enable-background="new 87.5 100 1025 999.8" xml:space="preserve"
	>
<g>
	<path fill="#FFFFFF" d="M464.25,343.5c2.25,3.75,6.25,6.25,10.75,6.25h62.5v162.5c0,7,5.5,12.5,12.5,12.5h100
		c7,0,12.5-5.5,12.5-12.5v-162.5H725c4.5,0,8.5-2.25,10.75-6.25C738,339.75,738,335,736,331L611,106c-4.5-8-17.5-8-22,0L464,331
		C462,335,462,339.75,464.25,343.5z"/>
	<path fill="#FFFFFF" d="M612.5,687.25v-100c0-7-5.5-12.5-12.5-12.5s-12.5,5.5-12.5,12.5v100c0,7,5.5,12.5,12.5,12.5
		S612.5,694.25,612.5,687.25z"/>
	<path fill="#FFFFFF" d="M387.75,787.75c3.25,0,6.5-1.25,8.75-3.75c5-5,5-12.75,0-17.75l-70.75-70.75c-5-5-12.75-5-17.75,0
		s-5,12.75,0,17.75L378.75,784C381.5,786.5,384.75,787.75,387.75,787.75z"/>
	<path fill="#FFFFFF" d="M200,974.75c-7,0-12.5,5.5-12.5,12.5s5.5,12.5,12.5,12.5h100c7,0,12.5-5.5,12.5-12.5s-5.5-12.5-12.5-12.5
		H200z"/>
	<path fill="#FFFFFF" d="M900,999.75h100c7,0,12.5-5.5,12.5-12.5s-5.5-12.5-12.5-12.5H900c-7,0-12.5,5.5-12.5,12.5
		S893,999.75,900,999.75z"/>
	<path fill="#FFFFFF" d="M891.75,695.5c-5-5-12.75-5-17.75,0l-70.75,70.75c-5,5-5,12.75,0,17.75c2.5,2.5,5.75,3.75,8.75,3.75
		s6.5-1.25,8.75-3.75l70.75-70.75C896.5,708.5,896.5,700.5,891.75,695.5z"/>
	<path fill="#FFFFFF" d="M375,999.75h450c7,0,12.5-5.5,12.5-12.5c0-131-106.5-237.5-237.5-237.5s-237.5,106.5-237.5,237.5
		C362.5,994.25,368,999.75,375,999.75z"/>
	<path fill="#FFFFFF" d="M1100,1024.8H100c-7,0-12.5,5.5-12.5,12.5s5.5,12.5,12.5,12.5h1000c7,0,12.5-5.5,12.5-12.5
		S1107,1024.8,1100,1024.8z"/>
	<path fill="#FFFFFF" d="M975,1074.8H225c-7,0-12.5,5.5-12.5,12.5s5.5,12.5,12.5,12.5h750c7,0,12.5-5.5,12.5-12.5
		S982,1074.8,975,1074.8z"/>
</g>
</svg>
