<?xml version="1.0" encoding="utf-8"?>
<!-- Generator: Adobe Illustrator 16.0.3, SVG Export Plug-In . SVG Version: 6.00 Build 0)  -->
<!DOCTYPE svg PUBLIC "-//W3C//DTD SVG 1.1//EN" "http://www.w3.org/Graphics/SVG/1.1/DTD/svg11.dtd">
<svg version="1.1" id="Capa_1" xmlns="http://www.w3.org/2000/svg" xmlns:xlink="http://www.w3.org/1999/xlink" x="0px" y="0px"
	 width="800.001px" height="707.374px" viewBox="0 46.314 800.001 707.374" enable-background="new 0 46.314 800.001 707.374"
	 xml:space="preserve">
<g>
	<path fill="#FFFFFF" d="M423.948,88.166V70.262c0-13.229-10.72-23.948-23.947-23.948c-13.229,0-23.948,10.72-23.948,23.948v17.903
		C176.115,98.258,15.619,233.846,0,404.414c19.44-13.954,48.935-22.86,81.968-22.86c51.404,0,94.235,21.558,103.927,50.161h4.263
		c9.937-28.418,52.64-49.788,103.818-49.788c33.13,0,62.635,8.986,82.076,23.007v240.171c0,33.454-27.223,60.674-60.674,60.674
		c-33.453,0-60.675-27.221-60.675-60.674c0-13.229-10.72-23.948-23.948-23.948s-23.948,10.72-23.948,23.948
		c0,59.871,48.71,108.583,108.581,108.583s108.562-48.712,108.562-108.583V404.542c19.431-14.012,48.925-22.988,82.036-22.988
		c51.405,0,94.236,21.558,103.928,50.161h4.263c9.936-28.418,52.639-49.788,103.818-49.788c33.053,0,62.566,8.917,82.007,22.891
		C784.597,234.061,624.022,98.278,423.948,88.166z"/>
</g>
</svg>
