<?xml version="1.0" encoding="utf-8"?>
<!-- Generator: Adobe Illustrator 16.0.3, SVG Export Plug-In . SVG Version: 6.00 Build 0)  -->
<!DOCTYPE svg PUBLIC "-//W3C//DTD SVG 1.1//EN" "http://www.w3.org/Graphics/SVG/1.1/DTD/svg11.dtd">
<svg version="1.1" id="Layer_1" xmlns="http://www.w3.org/2000/svg" xmlns:xlink="http://www.w3.org/1999/xlink" x="0px" y="0px"
	 width="631.2px" height="638.396px" viewBox="284.407 280.804 631.2 638.396"
	 enable-background="new 284.407 280.804 631.2 638.396" xml:space="preserve">
<path d="M789.6,351.6c-19.198-14.397-48-10.801-62.397,9.602c-14.398,19.199-10.801,48,9.602,62.398c57.602,43.199,90,108,90,180
	c0,124.8-102,226.8-226.8,226.8s-226.8-102-226.8-226.8c0-72,32.398-138,90-180c19.198-14.398,24-42,9.602-62.398
	c-14.398-19.198-42-24-62.398-9.602c-79.199,58.802-126,152.4-126,252c0,174,141.6,315.601,315.6,315.601
	S915.607,777.6,915.607,603.6c-0.008-99.602-46.81-193.199-126.011-252H789.6z"/>
<path d="M600,678c24,0,44.398-20.398,44.398-44.398V325.202c0-24-20.398-44.398-44.398-44.398s-44.398,20.398-44.398,44.398v308.399
	c0,25.203,20.398,44.402,44.398,44.402V678z"/>
</svg>
