<?xml version="1.0" encoding="utf-8"?>
<!-- Generator: Adobe Illustrator 16.0.3, SVG Export Plug-In . SVG Version: 6.00 Build 0)  -->
<!DOCTYPE svg PUBLIC "-//W3C//DTD SVG 1.1//EN" "http://www.w3.org/Graphics/SVG/1.1/DTD/svg11.dtd">
<svg version="1.1" id="Layer_1" xmlns="http://www.w3.org/2000/svg" xmlns:xlink="http://www.w3.org/1999/xlink" x="0px" y="0px"
	 width="1848.045px" height="195.454px" viewBox="615.198 1156.722 1848.045 195.454"
	 enable-background="new 615.198 1156.722 1848.045 195.454" xml:space="preserve">
<path fill="#FFFFFF" d="M786.162,1239.196h81.969c8.651-52.761-27.561-82.475-104.899-82.475
	c-82.475,0-131.564,33.293-145.17,97.338s21.322,97.351,103.797,97.351c73.771,0,121.229-26.898,139.438-77.637h-82.721
	c-8.6,19.986-24.552,29.986-46.588,29.986c-30.738,0-43.682-17.432-36.834-49.7c6.861-32.282,27.275-49.96,58.001-49.96
	C777.226,1204.113,788.704,1216.408,786.162,1239.196L786.162,1239.196z M952.823,1241.518l7.018-33.047H999.8
	c20.998,0,31.076,2.049,28.08,16.147c-2.841,13.32-13.592,16.913-33.307,16.913h-41.75V1241.518L952.823,1241.518z
	 M1037.944,1161.598H897.066l-39.324,184.937h72.748l11.971-56.367h42.774c17.678,0,23.358,4.604,21.958,18.47
	c-1.53,15.603-6.927,28.948-3.19,37.897h79.673l0.597-2.814c-7.782-4.358-4.578-19.48-0.195-46.107
	c3.45-20.998,3.32-31.258-14.668-39.441c20.803-7.432,35.822-25.109,40.452-46.886c3.801-17.924-0.622-32.022-12.71-40.219
	C1086.879,1163.894,1067.14,1161.598,1037.944,1161.598L1037.944,1161.598z M1094.674,1346.521h202.095l10.143-47.651h-130.397
	l5.175-24.318h100.671l9.676-45.602H1191.39l4.682-22.022h124.238l9.623-45.33h-195.947L1094.674,1346.521z"/>
<path fill="#FFFFFF" d="M1306.042,1290.167c-7.808,39.208,24.241,62.009,94.407,62.009c85.043,0,129.931-19.48,139.775-65.835
	c6.459-30.479-10-48.156-49.493-54.045l-63.357-9.222c-17.885-2.555-26.341-4.863-24.616-13.061
	c1.518-7.172,11.582-12.295,28.494-12.295c22.27,0,33.009,6.147,32.347,17.678h83.24c5.693-41.244-28.494-58.662-103.81-58.662
	c-72.242,0-110.218,17.159-119.18,59.428c-6.614,30.997,11.958,49.7,55.147,55.069l52.112,6.667
	c16.718,2.049,24.215,6.666,22.516,14.591c-1.894,8.962-12.567,13.319-31.789,13.319c-19.714,0-29.739-5.875-28.922-15.628h-86.872
	V1290.167L1306.042,1290.167z"/>
<path fill="#FFFFFF" d="M1576.307,1346.521h71.71l29.337-138.063h67.105l9.974-46.86h-205.688l-9.947,46.86h66.846
	L1576.307,1346.521L1576.307,1346.521z M1816.701,1241.518l7.017-33.047h39.973c20.973,0,31.063,2.049,28.066,16.147
	c-2.84,13.32-13.579,16.913-33.306,16.913h-41.75V1241.518L1816.701,1241.518z M1901.821,1161.598h-140.864l-39.312,184.937h72.747
	l11.958-56.367h42.787c17.679,0,23.359,4.604,21.958,18.47c-1.543,15.603-6.938,28.948-3.216,37.897h79.699l0.583-2.814
	c-7.782-4.358-4.565-19.48-0.182-46.107c3.425-20.998,3.294-31.258-14.694-39.441c20.804-7.432,35.822-25.109,40.452-46.886
	c3.801-17.924-0.635-32.022-12.71-40.219C1950.756,1163.894,1931.029,1161.598,1901.821,1161.598L1901.821,1161.598z"/>
<path fill="#FFFFFF" d="M1962.053,1254.06c-13.631,64.045,21.31,97.351,103.784,97.351s131.578-33.306,145.171-97.351
	c13.604-64.045-21.31-97.338-103.784-97.338C2024.723,1156.722,1975.658,1190.015,1962.053,1254.06z M2036.486,1254.06
	c6.888-32.282,27.288-49.96,58.015-49.96c30.751,0,43.643,17.678,36.781,49.96c-6.86,32.269-27.21,49.7-57.961,49.7
	C2042.583,1303.76,2029.639,1286.342,2036.486,1254.06L2036.486,1254.06z M2198.271,1346.521h67.611l23.021-108.35l54.589,108.35
	h80.439l39.311-184.924h-69.414l-22.671,106.547l-48.779-106.546h-84.796L2198.271,1346.521L2198.271,1346.521z"/>
</svg>
