<?xml version="1.0" encoding="utf-8"?>
<!-- Generator: Adobe Illustrator 16.0.3, SVG Export Plug-In . SVG Version: 6.00 Build 0)  -->
<!DOCTYPE svg PUBLIC "-//W3C//DTD SVG 1.1//EN" "http://www.w3.org/Graphics/SVG/1.1/DTD/svg11.dtd">
<svg version="1.1" id="Layer_1" xmlns="http://www.w3.org/2000/svg" xmlns:xlink="http://www.w3.org/1999/xlink" x="0px" y="0px"
	 width="121.376px" height="62.923px" viewBox="208.23 248.542 121.376 62.923"
	 enable-background="new 208.23 248.542 121.376 62.923" xml:space="preserve">
<path fill="#FFFFFF" d="M214.378,293.582c0.88,0.756,1.862,1.52,2.955,2.286c0.578,0.409,1.136,0.715,1.633,0.959
	c0.482,0.232,0.903,0.403,1.22,0.549c0.372,0.172,0.721-0.061,0.7-0.47c-0.067-1.34-0.061-2.609,0.012-3.798v-0.006
	c0.453-7.353,3.515-12.28,8.623-16.563c5.569-4.675,13.417-8.739,27.324-10.218c17.89-1.897,32.271,7.667,24.485,14.59
	c-0.488,0.436,0.09,1.156,0.619,0.768c7.28-5.329,4.035-9.411,0.474-12.577c-9.204-8.184-34.474-7.885-52.8-2.527
	c-16.641,4.863-28.738,14.45-16.223,26.13C213.718,293.007,214.047,293.297,214.378,293.582L214.378,293.582z M227.373,293.111
	c-1.598-11.723,10.752-24.738,30.566-24.788c6.929-0.014,14.738,0.485,19.863,6.27c0.436,0.488-0.218,1.133-0.703,0.694
	c-8.632-7.844-32.161-4.913-37.472,3.35c-3.463,5.395-2.438,9.907,0.691,13.977c0.758,0.993,1.737,2.048,2.684,2.964
	c5.363,5.174,13.649,9.602,30.046,14.221c0.561,0.16,0.526,0.863-0.049,0.965c-0.816,0.143-2.007,0.415-3.887,0.522
	C241.199,312.884,228.797,303.506,227.373,293.111L227.373,293.111z M245.481,293.111c-4.657-4.669-5.872-9.753-1.046-14.134
	c3.542-3.213,8.326-6.409,20.284-5.834c0.666,0.032,0.639,0.991-0.023,0.988c-18.114-0.043-23.55,11.865-13.103,17.978
	c0.596,0.352,1.203,0.686,1.81,1.005h0.009c8.922,4.663,18.948,6.002,28.971,6.162c11.275,0.177,22.672-1.305,38.201-6.18h0.052
	c0.218-0.078,0.436-0.153,0.654-0.221c0.288-0.09,0.529,0.029,0.619,0.238c0.052,0.134,0.049,0.284-0.009,0.415
	c-0.087,0.221-0.166,0.5-0.319,0.84c-0.211,0.461-0.486,0.891-0.816,1.275c-12.272,14.521-35.88,14.468-54.023,8.901
	c-8.759-2.689-16.662-6.853-21.246-11.435H245.481L245.481,293.111z M258.009,292.742c-0.928-0.521-1.797-1.14-2.595-1.845
	c-3.559-3.167-6.807-7.245,0.474-12.58c0.529-0.386,1.11,0.331,0.619,0.77c-5.668,5.037,0.413,11.479,11.042,13.878
	c0.485,0.108,0.968,0.21,1.456,0.302c3.956,0.704,7.992,0.842,11.987,0.41c1.693-0.18,3.399-0.398,5.081-0.686
	c10.808-1.851,17.394-5.459,22.242-9.532c5.944-4.982,9.117-10.831,8.637-20.36c-0.02-0.407,0.329-0.645,0.697-0.473
	c0.32,0.148,0.744,0.319,1.223,0.552c0.497,0.241,1.061,0.549,1.636,0.956c17.597,12.419,7.06,22.861-9.529,28.428
	c-0.916,0.306-1.838,0.594-2.766,0.862c-16.243,4.75-37.945,5.526-49.078-0.066C258.756,293.161,258.38,292.955,258.009,292.742
	L258.009,292.742z M217.08,264.364c12.271-14.521,35.876-14.468,54.02-8.902c17.687,5.43,31.876,16.876,22.309,25.563
	c-3.539,3.217-8.326,6.412-20.284,5.84c-0.665-0.035-0.639-0.994,0.026-0.988c18.111,0.047,23.55-11.868,13.103-17.977
	c-9.37-5.482-20.084-6.999-30.795-7.165c-11.444-0.18-23.015,1.348-38.907,6.4c-0.445,0.142-0.779-0.218-0.61-0.651
	c0.087-0.221,0.168-0.502,0.32-0.842C216.429,265.271,216.67,264.843,217.08,264.364z M279.249,291.68
	c-6.764-0.023-14.248-0.669-19.212-6.27c-0.433-0.488,0.218-1.137,0.703-0.691c8.631,7.841,32.164,4.912,37.472-3.348
	c4.326-6.737,1.65-12.097-3.373-16.94c-5.366-5.174-13.649-9.602-30.046-14.221c-0.558-0.157-0.523-0.863,0.052-0.962
	c0.813-0.142,2.007-0.418,3.887-0.526c58.918-3.387,48.724,42.153,12.042,42.948C280.263,291.68,279.757,291.68,279.249,291.68
	L279.249,291.68z"/>
</svg>
