<?xml version="1.0" encoding="UTF-8"?>
<svg width="1200pt" height="1200pt" version="1.1" viewBox="0 0 1200 1200" xmlns="http://www.w3.org/2000/svg">
 <path fill="#ffffff" d="m202.91 260.32c4.332 3.5352 9.5352 5.2539 14.711 5.2539 6.793 0 13.531-2.9688 18.145-8.6836 8.1328-10.07 6.6055-24.859-3.4141-33.031l-23.16-18.906h177.58c12.898 0 23.355-10.516 23.355-23.48 0-12.973-10.457-23.484-23.355-23.484h-177.58l23.16-18.906c10.02-8.1719 11.547-22.961 3.4141-33.031-8.125-10.07-22.84-11.609-32.855-3.4297l-74.277 60.617c-0.023438 0.015624-0.035157 0.035156-0.058594 0.050781-0.63281 0.51953-1.2344 1.0742-1.8086 1.6562-0.15625 0.16016-0.30078 0.33594-0.45312 0.5-0.40625 0.43359-0.80078 0.875-1.168 1.3398-0.18359 0.22656-0.34766 0.46094-0.51953 0.69531-0.31641 0.42969-0.62891 0.86719-0.91797 1.3203-0.16016 0.24609-0.30469 0.49609-0.44922 0.74609-0.27734 0.46875-0.53906 0.94922-0.78125 1.4375-0.12109 0.24609-0.24219 0.48828-0.35547 0.73828-0.23438 0.51953-0.44922 1.0547-0.64453 1.5938-0.089844 0.23438-0.17969 0.46484-0.26172 0.70313-0.1875 0.57031-0.34766 1.1523-0.49609 1.7383-0.054687 0.22656-0.12109 0.44922-0.17188 0.67578-0.13281 0.62109-0.23047 1.2539-0.31641 1.8867-0.027344 0.20703-0.070313 0.40625-0.09375 0.60938-0.089844 0.83594-0.14062 1.6836-0.14062 2.543 0 0.85938 0.050781 1.7031 0.14062 2.5391 0.023437 0.20312 0.066406 0.40625 0.09375 0.60938 0.085937 0.63672 0.18359 1.2656 0.31641 1.8867 0.050781 0.22656 0.11719 0.44922 0.17188 0.67578 0.14844 0.58594 0.30859 1.168 0.49609 1.7383 0.082031 0.23828 0.17188 0.46875 0.26172 0.70703 0.19531 0.53906 0.41016 1.0703 0.64453 1.5898 0.11328 0.25 0.23438 0.49219 0.35547 0.74219 0.24219 0.48828 0.50391 0.96484 0.78125 1.4336 0.14453 0.25 0.28906 0.5 0.44922 0.74609 0.28906 0.45312 0.60156 0.88672 0.91797 1.3203 0.17188 0.23047 0.33594 0.46875 0.51953 0.69531 0.36719 0.46484 0.76172 0.90625 1.168 1.3398 0.15234 0.16406 0.29688 0.33984 0.45312 0.50391 0.57422 0.57812 1.1758 1.1289 1.8086 1.6523 0.023437 0.015625 0.035156 0.035156 0.058594 0.050781zm804.8 634.87c-6.0586 62.621-30.676 121.57-69.316 165.97-53.035 60.941-126.22 91.844-217.53 91.844-69.625 0-135.5-24.258-195.79-72.102-45.863-36.383-71.055-73.465-71.281-73.805-0.28906-0.43359-0.58984-0.85547-0.90625-1.2695-69.652-90.66-191.39-316.23-227.04-383.2-1.2891-2.4258-0.39844-5.4805 1.1953-6.3945 37.812-21.711 84.672-11.133 111.42 25.137l123.18 167.04c6.0039 8.1406 16.527 11.492 26.09 8.3125 9.5703-3.1797 16.031-12.168 16.031-22.297v-581.53c0-15.195 5.9414-29.703 16.297-39.82 9.2148-9 21.074-13.805 33.426-13.395 25.949 0.76172 47.059 25.348 47.059 54.812v322.63c0 12.969 10.457 23.484 23.355 23.484 12.898 0 23.359-10.516 23.359-23.484v-439.15c0-26.824 21.707-48.648 48.387-48.648 26.684 0 48.387 21.824 48.387 48.648v462.42c-0.023437 0.94922-0.066406 1.8906-0.066406 2.8438 0 0.46094 0.042969 0.90625 0.066406 1.3594v2.9766c0 12.969 10.461 23.484 23.359 23.484 12.902 0 23.359-10.516 23.359-23.484v-7.1523c1.332-28.051 22.496-50.418 48.32-50.418 26.684 0 48.391 23.879 48.391 53.234v74.715c0 2.9258 0.54297 5.8281 1.6055 8.5586l1.3164 3.3867c3.8086 9.7773 13.602 15.82 24.008 14.816 10.398-1.0156 18.863-8.8516 20.727-19.184 4.4766-24.801 24.434-42.805 47.445-42.805 26.363 0 47.871 23.316 48.383 52.191zm-25.145-339.44c-17.523 0-34.117 5.0508-48.387 13.949v-6.4727c0-55.254-42.664-100.2-95.105-100.2-17.633 0-34.148 5.1016-48.32 13.949v-379.01c0-52.723-42.664-95.617-95.105-95.617-52.441 0-95.102 42.895-95.102 95.617v29.113c-13.488-8.6562-29.082-13.859-45.695-14.348-25.051-0.68359-48.984 8.7305-67.336 26.648-19.359 18.906-30.465 45.699-30.465 73.512v510.43l-81.059-109.92c-41.055-55.668-113.43-71.629-172.11-37.949-23.703 13.609-32.328 44.715-19.219 69.34 46.152 86.703 160.89 297.92 230.83 389.2 4.0391 5.8867 31.262 44.297 79.305 82.723 68.098 54.465 146.27 83.254 226.07 83.254 105.37 0 190.39-36.297 252.69-107.88 45.016-51.73 73.656-120.04 80.652-192.35l23.355-241.51c0.074219-0.75391 0.10938-1.5156 0.10938-2.2734 0-55.25-42.66-100.2-95.105-100.2z" fill-rule="evenodd"/>
</svg>
