<?xml version="1.0" encoding="utf-8"?>
<!-- Generator: Adobe Illustrator 16.0.3, SVG Export Plug-In . SVG Version: 6.00 Build 0)  -->
<!DOCTYPE svg PUBLIC "-//W3C//DTD SVG 1.1//EN" "http://www.w3.org/Graphics/SVG/1.1/DTD/svg11.dtd">
<svg version="1.1" id="Layer_1" xmlns="http://www.w3.org/2000/svg" xmlns:xlink="http://www.w3.org/1999/xlink" x="0px" y="0px"
	 width="825.6px" height="825.592px" viewBox="187.197 187.198 825.6 825.592"
	 enable-background="new 187.197 187.198 825.6 825.592" xml:space="preserve">
<g>
	<path fill="#FFFFFF" d="M645.6,600V232.8c0-25.199-20.398-45.602-45.603-45.602c-25.198,0-45.602,20.397-45.602,45.602V600
		c0,25.199,20.398,45.602,45.602,45.602C625.197,645.602,645.6,625.2,645.6,600z"/>
	<path fill="#FFFFFF" d="M860.4,279.6c-19.199-15.602-48-13.199-63.602,6c-15.603,19.199-13.199,48,6,63.602
		c75.602,61.199,118.8,152.399,118.8,249.6c0,177.601-144,321.601-321.6,321.601c-177.601-0.008-321.601-142.801-321.601-320.41
		c0-97.199,43.199-188.4,118.8-249.6c19.199-15.602,22.802-44.398,6-63.602c-15.602-19.199-44.397-22.801-63.602-6
		c-97.199,78.004-152.399,194.4-152.399,319.2c0,228,184.8,412.8,412.8,412.8s412.8-184.8,412.8-412.8
		c0-124.8-55.199-241.2-152.4-320.4L860.4,279.6z"/>
</g>
</svg>
