<?xml version="1.0" encoding="utf-8"?>
<!DOCTYPE svg PUBLIC "-//W3C//DTD SVG 1.1//EN" "http://www.w3.org/Graphics/SVG/1.1/DTD/svg11.dtd">
<svg version="1.1" id="Layer_1" xmlns="http://www.w3.org/2000/svg" xmlns:xlink="http://www.w3.org/1999/xlink" x="0px" y="0px"
	 width="628.761px" height="628.761px" viewBox="175.775 110.536 628.761 406.976"
	 enable-background="new 175.775 110.536 628.761 406.976" xml:space="preserve">
<path fill="#FFFFFF" d="M705.124,276.752c0.514-4.714,0.705-9.525,0.705-14.338c0-83.91-67.995-151.879-151.879-151.879
	c-65.098,0-120.482,41.019-142.08,98.631c-14.313-15.698-34.724-25.731-57.64-25.731c-43.206,0-78.22,34.992-78.22,78.219
	c0,5.103,0.534,10.059,1.506,14.896c-57.639,9.503-101.742,59.198-101.742,119.46c0,67.163,54.383,121.5,121.499,121.5h385.762
	c67.113,0,121.5-54.337,121.5-121.5c0.021-59.514-42.893-108.82-99.41-119.266L705.124,276.752z"/>
</svg>
