<?xml version="1.0" encoding="utf-8"?>
<!-- Generator: Adobe Illustrator 16.0.3, SVG Export Plug-In . SVG Version: 6.00 Build 0)  -->
<!DOCTYPE svg PUBLIC "-//W3C//DTD SVG 1.1//EN" "http://www.w3.org/Graphics/SVG/1.1/DTD/svg11.dtd">
<svg version="1.1" id="Layer_1" xmlns="http://www.w3.org/2000/svg" xmlns:xlink="http://www.w3.org/1999/xlink" x="0px" y="0px"
	 width="831.979px" height="831.98px" viewBox="-3.99 8.01 831.979 831.98" enable-background="new -3.99 8.01 831.979 831.98"
	 xml:space="preserve">
<path fill="#FFFFFF" d="M512.22,422.611c-0.047-0.229,0-0.436-0.07-0.648l-94.513-262.46c-1.715-4.754-9.574-4.754-11.28,0
	l-94.5,262.48c-0.07,0.203-0.012,0.422-0.07,0.625c-0.108,0.48-0.145,0.926-0.145,1.402c0,0.492,0.035,0.938,0.145,1.402
	c0.047,0.215,0,0.422,0.07,0.637l94.5,262.459c0.852,2.387,3.109,3.975,5.641,3.975c2.532,0,4.789-1.588,5.642-3.975l94.5-262.479
	c0.069-0.215,0.022-0.434,0.069-0.648c0.121-0.469,0.146-0.91,0.146-1.391S512.328,423.064,512.22,422.611L512.22,422.611z
	 M412,668.75L326.043,430h85.934l85.992-0.012L412,668.75z"/>
<path fill="#FFFFFF" d="M412,8.01C182.618,8.01-3.99,194.62-3.99,424c0,229.371,186.608,415.99,415.99,415.99
	c229.38,0,415.988-186.619,415.988-415.99C827.99,194.62,641.38,8.01,412,8.01z M412,804.115
	C202.404,804.115,31.885,633.593,31.885,424c0-209.595,170.52-380.114,380.115-380.114c209.595,0,380.112,170.52,380.112,380.114
	C792.113,633.593,621.595,804.115,412,804.115z"/>
</svg>
