<?xml version="1.0" encoding="UTF-8"?>
<svg width="1200pt" height="1200pt" version="1.1" viewBox="0 0 1200 1200" xmlns="http://www.w3.org/2000/svg">
 <g>
  <path fill="#ffffff" d="m801.6 858h-97.199c-20.398 0-36-15.602-36-36l-0.003906-444c0-19.199 15.602-36 36-36h97.199c20.398 0 36 16.801 36 36v445.2c0.003906 19.199-15.598 34.801-35.996 34.801z"/>
  <path fill="#ffffff" d="m1084.8 858h-97.199c-20.398 0-36-15.602-36-36v-444c0-19.199 15.602-36 36-36h97.199c20.398 0 36 16.801 36 36v445.2c0 19.199-16.801 34.801-36 34.801z"/>
  <path fill="#ffffff" d="m552 568.8-418.8-241.2c-24-14.398-54 3.6016-54 31.199v483.6c0 27.602 30 45.602 54 31.199l418.8-242.4c24-14.398 24-48 0-62.398z"/>
 </g>
</svg>
