<?xml version="1.0" encoding="UTF-8"?>
<svg width="1200pt" height="1200pt" version="1.1" viewBox="0 0 1200 1200" xmlns="http://www.w3.org/2000/svg">
 <path d="m522.48 302.05 206.71-206.95c20.172-20.199 52.789-20.133 72.879 0.15625 9.6289 9.7305 15.039 22.902 15.039 36.637v445.86l302.89 298.24-84.004 84.004-876-876 84.004-84.004 290.26 290.26zm294.63 548.03v298.02c0 28.664-23.086 51.898-51.559 51.898-13.625 0-26.695-5.4297-36.355-15.102l-334.43-334.81h-263.22c-28.473 0-51.555-23.238-51.555-51.898v-316.38c0-28.66 23.082-51.898 51.555-51.898h263.22z" fill-rule="evenodd"/>
</svg>
