<?xml version="1.0" encoding="UTF-8"?>
<svg width="1200pt" height="1200pt" version="1.1" viewBox="0 0 1200 1200" xmlns="http://www.w3.org/2000/svg">
 <g>
  <path fill="#ffffff" d="m645.6 600v-367.2c0-25.199-20.398-45.602-45.602-45.602-25.199 0-45.602 20.398-45.602 45.602v367.2c0 25.199 20.398 45.602 45.602 45.602 25.199 0 45.602-20.402 45.602-45.602z"/>
  <path fill="#ffffff" d="m860.4 279.6c-19.199-15.602-48-13.199-63.602 6-15.602 19.199-13.199 48 6 63.602 75.602 61.199 118.8 152.4 118.8 249.6 0 177.6-144 321.6-321.6 321.6-177.6-0.007812-321.6-142.8-321.6-320.41 0-97.199 43.199-188.4 118.8-249.6 19.199-15.602 22.801-44.398 6-63.602-15.602-19.199-44.398-22.801-63.602-6-97.199 78.004-152.4 194.4-152.4 319.2 0 228 184.8 412.8 412.8 412.8s412.8-184.8 412.8-412.8c0-124.8-55.199-241.2-152.4-320.4z"/>
 </g>
</svg>
